<?xml version="1.0" encoding="UTF-8" ?>
<!DOCTYPE svg PUBLIC "-//W3C//DTD SVG 1.1//EN" "http://www.w3.org/Graphics/SVG/1.1/DTD/svg11.dtd">
<svg width="1500pt" height="900pt" viewBox="0 0 1500 900" version="1.1" xmlns="http://www.w3.org/2000/svg">
<g id="#000000ff">
<path fill="#000000" opacity="1.00" d=" M 297.32 349.30 C 298.63 347.85 300.45 347.10 302.23 346.40 C 302.68 346.84 303.59 347.74 304.05 348.19 C 303.44 349.81 302.84 351.44 301.96 352.94 C 292.68 367.92 282.61 382.37 272.71 396.94 C 268.00 403.68 262.49 410.03 259.75 417.92 C 259.10 417.78 257.80 417.50 257.15 417.36 C 252.17 426.50 247.85 435.99 243.13 445.27 C 240.67 450.43 237.82 455.42 235.68 460.74 C 238.18 461.29 240.69 461.84 243.19 462.40 C 258.34 455.39 272.78 446.96 286.66 437.70 C 301.94 427.84 315.87 416.10 330.51 405.36 C 346.03 393.82 361.51 382.19 377.16 370.86 C 378.71 369.92 379.90 370.27 380.73 371.89 C 379.86 373.87 378.11 375.20 376.45 376.48 C 360.55 388.58 344.45 400.42 328.57 412.55 C 308.53 427.82 288.21 442.92 265.99 454.90 C 260.71 458.23 254.79 460.42 249.62 463.92 C 262.71 467.46 275.88 470.70 288.94 474.37 C 302.93 478.27 317.48 482.59 328.78 492.13 C 332.20 486.22 336.38 480.83 340.16 475.16 C 341.94 472.31 344.04 468.85 342.61 465.40 C 340.23 461.33 335.70 458.65 334.27 453.99 C 332.96 447.23 337.62 440.04 344.22 438.16 C 345.86 439.20 348.50 439.66 348.57 442.07 C 348.57 447.65 344.13 451.69 341.22 456.02 C 343.90 459.09 346.98 462.06 348.27 466.03 C 349.23 469.82 347.76 473.69 345.97 477.01 C 342.17 484.00 337.17 490.23 333.14 497.09 C 336.98 503.01 338.07 510.67 335.53 517.32 C 342.21 510.75 348.65 503.93 355.65 497.70 C 369.70 486.02 383.86 474.43 398.56 463.58 C 400.67 461.57 401.86 458.81 403.67 456.54 C 409.06 449.44 415.15 442.90 421.53 436.68 C 422.94 435.09 425.24 435.37 427.14 434.92 C 427.63 436.72 429.20 438.97 427.43 440.55 C 420.31 448.72 412.81 456.60 406.50 465.45 C 402.06 471.53 397.62 477.99 395.81 485.40 C 399.69 484.60 403.10 482.50 406.45 480.48 C 422.51 470.28 438.53 460.02 454.14 449.14 C 456.23 447.47 456.96 444.72 458.68 442.73 C 460.28 440.57 462.85 439.57 465.20 438.48 C 468.43 440.44 465.85 444.13 463.57 445.64 C 461.35 447.76 456.93 449.19 458.13 453.05 C 459.34 459.42 461.44 465.62 463.64 471.71 C 474.39 467.04 484.30 460.56 495.18 456.20 C 500.99 441.90 507.96 428.08 515.78 414.78 C 518.96 409.31 522.79 404.24 525.62 398.57 C 507.70 398.25 489.79 399.77 471.93 401.05 C 461.50 401.72 451.11 403.17 440.92 405.48 C 438.40 406.28 436.42 404.48 435.84 402.15 C 435.55 398.85 439.43 397.56 442.02 396.92 C 445.65 395.78 449.25 397.71 452.92 397.18 C 477.92 395.35 503.01 395.50 528.06 394.93 C 537.04 383.06 545.29 370.41 556.43 360.39 C 557.95 360.06 559.15 361.20 560.39 361.86 C 559.51 364.33 558.63 366.86 557.08 369.01 C 550.75 377.59 543.67 385.64 537.91 394.64 C 576.28 394.65 614.70 393.55 653.04 395.56 C 655.31 395.78 659.52 396.83 658.12 399.93 C 657.70 401.72 655.67 401.78 654.25 402.25 C 651.87 402.77 649.38 403.40 646.95 402.95 C 644.96 402.06 646.06 399.77 646.10 398.15 C 625.13 396.19 604.05 396.62 583.02 396.82 C 567.33 397.17 551.63 397.39 535.95 398.01 C 533.34 397.92 531.52 400.12 529.93 401.89 C 526.76 405.93 524.51 410.58 521.83 414.94 C 511.80 431.26 503.52 448.61 496.27 466.31 C 489.56 483.73 482.94 501.38 480.06 519.90 C 479.39 524.70 478.95 529.78 480.55 534.44 C 481.35 537.15 484.35 537.76 486.63 538.67 C 483.70 541.94 478.55 539.36 477.31 535.76 C 474.83 529.67 475.75 522.87 476.62 516.54 C 479.65 497.67 486.14 479.58 492.90 461.78 C 483.23 466.16 473.37 470.11 463.87 474.84 C 464.08 480.05 464.08 485.61 461.23 490.20 C 456.67 497.90 448.26 501.82 440.53 505.57 C 436.52 507.14 432.31 508.54 427.96 508.58 C 424.64 508.84 421.23 505.50 422.38 502.10 C 424.19 495.81 429.46 491.42 434.46 487.60 C 442.63 481.71 451.84 477.49 460.86 473.09 C 459.57 466.03 456.57 459.46 454.94 452.49 C 440.11 462.41 425.47 472.66 410.42 482.28 C 405.86 485.15 401.34 488.44 396.01 489.67 C 393.10 490.32 390.33 487.86 390.39 484.94 C 390.41 478.58 393.52 472.78 396.45 467.32 C 376.96 482.74 357.32 498.14 340.37 516.40 C 336.41 519.82 332.42 525.95 326.42 524.35 C 323.09 523.64 322.43 519.88 322.03 517.05 C 321.20 509.48 324.02 502.15 327.05 495.36 C 321.79 490.85 315.76 487.27 309.31 484.73 C 298.59 480.56 287.49 477.47 276.41 474.44 C 266.83 471.65 257.23 468.93 247.54 466.57 C 246.14 466.29 244.66 465.80 243.29 466.43 C 239.09 467.99 234.93 469.67 230.54 470.61 C 222.63 485.00 215.49 499.80 208.49 514.65 C 207.75 515.91 206.89 518.48 204.90 517.27 C 204.90 514.94 205.72 512.76 206.66 510.67 C 210.65 501.74 214.49 492.74 218.81 483.97 C 220.70 479.99 223.00 476.20 224.51 472.05 C 221.29 471.63 217.73 471.84 214.96 469.86 C 212.53 468.38 212.37 464.42 214.81 462.85 C 219.39 459.56 225.36 459.83 230.73 459.95 C 236.64 449.22 241.62 438.02 247.10 427.07 C 254.82 412.04 262.44 396.89 271.76 382.76 C 279.26 370.88 287.28 359.20 297.32 349.30 M 274.59 386.55 C 272.12 390.71 269.16 394.61 267.30 399.11 C 270.63 396.03 272.57 391.87 275.23 388.27 C 281.07 379.26 287.63 370.67 292.66 361.17 C 285.50 368.73 280.24 377.86 274.59 386.55 M 215.75 466.01 C 217.88 468.79 221.78 468.76 224.93 468.27 C 227.74 468.04 228.28 464.84 229.41 462.83 C 224.70 462.44 219.31 462.34 215.75 466.01 M 234.40 463.49 C 233.73 464.44 233.07 465.40 232.42 466.37 C 234.20 465.87 236.07 465.45 237.49 464.18 C 236.46 463.93 235.43 463.70 234.40 463.49 M 447.71 482.66 C 439.81 487.00 431.67 491.83 426.61 499.54 C 425.64 501.04 424.51 503.36 426.03 504.90 C 428.44 506.08 431.16 504.92 433.60 504.42 C 442.20 501.75 450.59 497.50 456.83 490.89 C 460.51 487.03 461.69 481.55 461.48 476.37 C 456.64 477.88 452.20 480.37 447.71 482.66 M 326.32 518.07 C 326.39 519.42 327.33 520.48 327.91 521.66 C 330.16 519.88 332.77 518.09 333.47 515.12 C 334.71 510.22 333.56 504.95 331.09 500.61 C 328.41 506.03 325.76 511.87 326.32 518.07 Z" />
<path fill="#000000" opacity="1.00" d=" M 953.11 368.05 C 953.70 366.84 956.76 365.30 956.58 367.73 C 955.28 370.54 952.90 372.61 951.04 375.02 C 935.77 394.33 920.84 414.05 908.26 435.26 C 915.91 436.38 924.56 435.11 931.22 439.80 C 936.78 443.82 932.51 453.23 926.25 453.35 C 927.90 450.64 930.89 448.43 931.06 445.03 C 930.20 442.47 927.67 440.77 925.10 440.30 C 918.83 438.92 912.38 438.67 905.99 438.82 C 899.10 449.13 893.20 460.07 886.53 470.53 C 872.98 494.66 858.03 518.54 850.57 545.43 C 850.17 545.70 849.37 546.24 848.96 546.51 C 847.27 542.12 849.23 537.58 850.49 533.36 C 856.77 514.88 865.72 497.40 875.65 480.64 C 883.14 466.51 891.96 453.15 899.87 439.26 C 883.90 439.25 868.05 441.54 852.20 443.29 C 846.73 452.85 841.05 462.34 836.48 472.38 C 834.38 478.95 832.08 485.51 828.43 491.42 C 819.78 506.42 810.72 521.19 802.46 536.42 C 798.71 542.98 795.16 549.69 790.88 555.92 C 790.11 556.05 788.58 556.31 787.81 556.44 C 788.20 552.38 790.80 549.10 792.55 545.55 C 806.84 519.76 820.29 493.51 832.85 466.83 C 830.33 462.60 825.45 460.68 820.87 459.64 C 810.39 457.24 799.60 458.73 789.04 459.68 C 787.16 459.72 783.02 460.26 784.63 457.16 C 792.28 452.13 801.34 449.78 810.08 447.36 C 822.06 444.04 834.50 443.01 846.69 440.70 C 849.84 434.33 854.04 428.56 857.36 422.29 C 855.42 422.77 853.20 425.64 851.41 423.57 C 850.72 421.32 852.87 419.68 854.20 418.20 C 860.01 412.67 865.62 406.92 870.88 400.85 C 873.13 398.05 875.33 395.20 877.90 392.66 C 880.43 393.07 883.10 394.65 882.71 397.60 C 873.76 411.92 862.32 424.68 854.61 439.78 C 870.51 438.17 886.38 436.11 902.37 435.45 C 910.84 423.25 918.63 410.57 927.86 398.90 C 935.83 388.26 944.34 378.04 953.11 368.05 M 807.74 450.77 C 801.43 452.49 794.98 454.12 789.27 457.38 C 801.15 457.03 813.41 455.39 824.98 459.07 C 828.48 460.14 831.45 462.36 834.16 464.75 C 837.03 457.79 841.06 451.39 844.20 444.56 C 831.92 445.63 819.72 447.84 807.74 450.77 Z" />
<path fill="#000000" opacity="1.00" d=" M 433.21 416.18 C 433.98 414.20 434.83 412.24 435.83 410.36 C 437.59 410.95 439.37 411.54 441.15 412.11 C 441.03 413.87 440.85 415.63 440.64 417.40 C 439.98 417.59 438.66 417.97 438.00 418.16 C 436.38 417.54 434.77 416.89 433.21 416.18 Z" />
<path fill="#000000" opacity="1.00" d=" M 560.57 421.74 C 560.90 416.54 565.90 414.50 569.90 412.47 C 571.68 413.46 573.20 414.82 574.11 416.67 C 572.06 418.71 570.27 421.18 567.66 422.55 C 565.31 423.32 562.88 422.11 560.57 421.74 Z" />
<path fill="#000000" opacity="1.00" d=" M 1012.96 431.89 C 1017.46 429.35 1023.55 427.44 1028.03 431.08 C 1031.59 434.64 1030.95 440.33 1031.88 444.96 C 1031.08 454.31 1028.46 463.40 1025.92 472.40 C 1037.47 467.83 1048.89 462.97 1060.56 458.71 C 1062.93 454.17 1066.17 450.16 1070.23 447.02 C 1074.33 446.64 1075.91 450.71 1077.27 453.79 C 1088.95 453.96 1100.39 451.18 1111.89 449.44 C 1170.57 437.90 1230.29 432.76 1289.96 429.76 C 1300.97 429.37 1311.98 428.12 1323.00 428.44 C 1326.59 428.85 1331.73 428.84 1333.11 433.00 C 1333.73 437.87 1328.39 441.24 1324.04 440.80 C 1321.76 441.04 1320.93 437.75 1322.64 436.48 C 1324.42 435.22 1326.42 434.27 1328.26 433.06 C 1319.34 431.02 1310.08 431.98 1301.01 432.00 C 1250.52 433.89 1199.95 436.98 1150.03 445.07 C 1125.70 448.83 1101.71 454.87 1077.18 457.31 C 1075.28 464.34 1072.00 470.91 1068.19 477.09 C 1066.46 479.51 1064.27 482.48 1060.98 482.43 C 1056.98 482.08 1054.67 477.67 1054.84 474.04 C 1055.99 469.43 1057.99 465.07 1059.67 460.63 C 1049.72 464.48 1039.95 468.76 1030.27 473.22 C 1027.88 474.40 1024.71 475.24 1023.90 478.14 C 1012.54 508.62 996.84 538.35 972.86 560.81 C 963.50 569.61 952.73 577.08 940.68 581.64 C 935.01 583.44 927.99 585.03 922.88 581.05 C 917.90 576.62 918.91 569.12 920.66 563.41 C 925.01 550.81 933.51 540.13 942.64 530.63 C 964.87 508.06 991.44 490.06 1019.55 475.63 C 1021.90 466.93 1024.44 458.08 1024.38 449.00 C 1013.11 458.82 1003.18 470.21 990.97 478.94 C 987.85 481.14 984.66 483.41 980.95 484.48 C 978.97 485.01 976.38 484.19 976.31 481.84 C 976.13 475.89 979.35 470.44 982.61 465.68 C 981.84 465.12 981.10 464.57 980.38 464.02 C 985.88 462.35 987.95 456.49 991.36 452.44 C 997.49 444.64 1004.13 436.74 1012.96 431.89 M 1009.06 439.17 C 1004.61 442.97 1000.17 446.89 996.70 451.65 C 990.77 459.58 984.63 467.52 980.65 476.66 C 979.95 478.22 979.76 479.92 979.59 481.60 C 983.81 479.73 987.79 477.28 991.29 474.24 C 1002.48 465.16 1011.76 454.04 1021.36 443.35 C 1022.73 441.76 1024.36 440.13 1024.59 437.92 C 1024.97 436.00 1024.49 432.92 1021.97 433.00 C 1017.03 433.17 1012.85 436.31 1009.06 439.17 M 1066.65 461.63 C 1064.97 465.34 1062.33 469.12 1062.97 473.39 C 1065.85 469.87 1067.60 465.63 1069.69 461.63 C 1070.79 459.69 1071.12 457.46 1071.19 455.26 C 1068.60 456.42 1067.96 459.38 1066.65 461.63 M 967.65 510.67 C 953.05 522.30 938.94 535.07 928.90 550.99 C 924.96 557.34 921.25 564.39 921.21 572.05 C 921.02 575.80 923.10 580.01 927.00 580.90 C 934.61 582.42 942.09 579.22 948.76 575.88 C 961.23 569.19 971.85 559.51 981.20 549.00 C 997.92 528.50 1010.49 504.62 1018.33 479.40 C 1000.07 487.32 983.45 498.64 967.65 510.67 Z" />
<path fill="#000000" opacity="1.00" d=" M 589.20 433.12 C 592.79 431.39 597.20 428.14 601.09 430.90 C 602.33 432.71 601.79 435.05 601.14 436.98 C 599.73 441.47 596.62 445.10 594.58 449.28 C 599.12 447.12 603.79 444.53 608.96 444.56 C 613.58 444.81 615.32 450.08 614.96 454.00 C 615.14 459.41 613.33 465.57 616.62 470.37 C 619.28 474.41 624.64 474.97 629.05 474.51 C 636.25 473.64 642.38 469.31 648.06 465.11 C 650.89 463.27 651.48 459.76 653.15 457.06 C 657.14 450.25 663.49 444.91 670.63 441.65 C 674.20 440.48 678.53 438.73 682.02 441.04 C 684.60 442.82 684.49 446.54 683.20 449.08 C 680.10 455.66 674.22 460.30 668.42 464.42 C 664.03 467.59 658.98 469.64 653.94 471.53 C 654.53 477.28 661.08 479.17 665.99 479.13 C 679.45 479.23 691.29 471.94 702.67 465.63 C 707.18 463.24 711.12 459.77 715.94 457.99 C 717.41 459.36 714.84 460.26 714.16 461.20 C 705.55 467.50 696.80 473.89 686.78 477.77 C 680.40 480.23 673.93 483.04 666.99 483.22 C 662.59 483.27 657.90 482.36 654.50 479.38 C 651.78 477.09 650.66 473.60 649.35 470.43 C 644.14 474.25 638.31 477.41 632.01 478.97 C 625.31 480.48 616.98 479.11 612.96 473.01 C 609.36 467.31 610.53 460.31 610.95 453.97 C 610.93 452.10 611.23 449.36 609.03 448.58 C 604.47 448.83 600.46 451.32 596.57 453.48 C 592.09 456.24 587.24 458.68 583.75 462.74 C 579.31 467.74 574.88 472.76 569.91 477.25 C 569.11 477.28 567.51 477.35 566.71 477.38 C 564.71 475.46 564.51 472.48 566.50 470.47 C 570.24 466.25 574.47 462.41 579.05 459.09 C 583.26 455.63 586.45 451.14 589.78 446.86 C 592.73 442.77 596.12 438.78 597.48 433.81 C 593.60 434.59 590.53 437.23 587.20 439.19 C 571.74 448.86 558.35 461.67 541.97 469.89 C 537.73 472.00 533.79 475.18 528.97 475.79 C 526.32 476.17 524.24 473.60 524.48 471.10 C 525.15 465.86 527.96 461.22 531.07 457.08 C 536.74 448.99 543.60 441.76 551.14 435.39 C 552.76 436.03 553.87 437.28 554.54 438.88 C 551.09 443.94 546.14 447.69 542.34 452.46 C 537.78 458.11 533.08 463.76 529.78 470.27 C 534.01 469.58 537.77 467.43 541.53 465.50 C 558.53 456.40 572.80 443.15 589.20 433.12 M 658.17 456.74 C 659.07 460.57 656.80 463.94 654.60 466.82 C 662.37 462.94 670.00 458.36 675.91 451.89 C 677.85 449.88 678.87 447.24 679.72 444.63 C 678.21 444.30 676.63 443.70 675.12 444.35 C 668.22 446.37 662.60 451.24 658.17 456.74 Z" />
<path fill="#000000" opacity="1.00" d=" M 939.64 448.42 C 940.40 446.93 942.19 447.46 943.56 447.24 C 943.76 447.97 944.15 449.42 944.34 450.14 C 941.61 454.08 937.77 457.12 935.26 461.24 C 931.13 467.49 926.64 474.16 926.31 481.89 C 930.86 481.04 934.16 477.63 937.47 474.68 C 943.48 468.98 949.27 463.01 954.30 456.42 C 955.95 454.36 957.15 451.84 959.34 450.28 C 961.66 449.52 962.62 452.59 961.13 454.05 C 956.86 460.03 953.30 466.70 951.97 474.00 C 951.50 476.34 952.54 478.59 953.21 480.79 C 958.07 481.74 962.21 478.56 966.00 476.03 C 970.37 472.62 975.07 469.56 978.94 465.57 C 979.45 466.03 979.98 466.51 980.52 466.98 C 972.70 471.84 966.57 479.37 957.92 482.92 C 954.96 484.27 951.21 483.10 949.79 480.13 C 948.09 475.87 948.84 471.16 949.61 466.79 C 943.39 472.45 938.04 479.27 930.61 483.45 C 928.55 484.72 925.49 485.24 924.10 482.77 C 922.90 477.49 925.38 472.32 927.55 467.64 C 931.05 460.92 935.14 454.50 939.64 448.42 Z" />
<path fill="#000000" opacity="1.00" d=" M 1143.46 515.69 C 1148.47 513.58 1154.83 516.15 1156.71 521.31 C 1158.84 526.94 1158.34 534.42 1153.44 538.48 C 1148.66 542.38 1140.67 540.43 1138.30 534.73 C 1135.41 528.41 1136.37 518.76 1143.46 515.69 M 1144.30 518.24 C 1139.29 521.45 1139.24 528.77 1141.25 533.78 C 1142.71 537.77 1148.24 539.49 1151.47 536.52 C 1155.13 532.89 1155.31 526.89 1153.75 522.25 C 1152.57 518.46 1147.86 516.14 1144.30 518.24 Z" />
<path fill="#000000" opacity="1.00" d=" M 1247.70 516.61 C 1251.48 513.79 1256.83 514.92 1260.29 517.74 C 1259.88 518.22 1259.07 519.16 1258.67 519.64 C 1256.20 518.04 1253.06 516.60 1250.19 518.05 C 1248.07 518.95 1247.61 522.12 1249.35 523.62 C 1252.25 525.96 1256.26 526.43 1259.11 528.88 C 1262.08 531.57 1261.41 536.89 1258.06 538.99 C 1253.63 541.84 1247.73 540.46 1243.90 537.23 C 1244.35 536.70 1245.25 535.64 1245.70 535.11 C 1248.43 537.14 1252.03 539.04 1255.47 537.49 C 1257.87 536.58 1258.66 533.04 1256.81 531.26 C 1253.86 528.91 1249.88 528.36 1247.01 525.91 C 1244.28 523.48 1244.64 518.62 1247.70 516.61 Z" />
<path fill="#000000" opacity="1.00" d=" M 1281.50 518.46 C 1285.35 514.10 1292.47 513.93 1296.85 517.63 C 1296.42 518.12 1295.55 519.11 1295.12 519.60 C 1292.42 517.49 1288.55 516.57 1285.57 518.65 C 1280.96 521.81 1280.79 528.53 1282.58 533.32 C 1284.18 537.79 1290.04 539.31 1293.93 536.87 C 1294.36 534.60 1294.20 532.29 1294.21 530.01 C 1292.45 529.99 1290.72 529.99 1289.00 529.99 C 1289.00 529.37 1289.00 528.12 1289.00 527.50 C 1291.68 527.49 1294.37 527.49 1297.06 527.50 C 1297.06 530.97 1297.04 534.45 1297.10 537.92 C 1292.43 541.43 1284.99 541.61 1281.16 536.80 C 1277.25 531.59 1277.25 523.47 1281.50 518.46 Z" />
<path fill="#000000" opacity="1.00" d=" M 1020.26 539.98 C 1020.30 531.80 1020.20 523.61 1020.32 515.43 C 1021.10 515.45 1022.66 515.51 1023.44 515.54 C 1023.43 523.69 1023.44 531.85 1023.43 540.01 C 1022.64 540.00 1021.05 539.99 1020.26 539.98 Z" />
<path fill="#000000" opacity="1.00" d=" M 1032.26 539.99 C 1032.34 531.74 1032.12 523.50 1032.39 515.26 C 1033.21 515.37 1034.87 515.59 1035.69 515.70 C 1039.42 522.59 1043.65 529.19 1047.22 536.17 C 1046.61 529.28 1046.83 522.38 1046.80 515.48 C 1047.54 515.50 1049.04 515.54 1049.78 515.56 C 1049.68 523.72 1049.75 531.88 1049.74 540.05 C 1048.61 539.98 1047.48 539.92 1046.37 539.86 C 1042.70 533.04 1038.56 526.47 1035.00 519.57 C 1035.29 526.38 1035.25 533.19 1035.23 540.00 C 1034.49 540.00 1033.00 539.99 1032.26 539.99 Z" />
<path fill="#000000" opacity="1.00" d=" M 1055.93 515.50 C 1061.95 515.49 1067.97 515.49 1074.00 515.50 C 1074.00 516.13 1074.00 517.37 1074.00 518.00 C 1071.49 517.99 1068.99 518.00 1066.50 518.00 C 1066.51 525.31 1066.47 532.62 1066.53 539.94 C 1065.46 539.95 1064.40 539.98 1063.36 540.02 C 1063.37 532.68 1063.36 525.34 1063.37 518.00 C 1060.88 518.00 1058.40 517.99 1055.93 518.00 C 1055.93 517.37 1055.93 516.13 1055.93 515.50 Z" />
<path fill="#000000" opacity="1.00" d=" M 1080.77 515.50 C 1085.48 515.49 1090.21 515.49 1094.93 515.51 C 1094.94 516.13 1094.95 517.37 1094.95 517.99 C 1091.27 517.99 1087.60 518.00 1083.93 518.00 C 1083.92 520.66 1083.92 523.33 1083.94 526.00 C 1087.07 526.00 1090.21 525.99 1093.36 526.01 C 1093.29 526.60 1093.13 527.78 1093.05 528.36 C 1090.02 528.67 1086.96 528.48 1083.94 528.50 C 1083.93 531.49 1083.92 534.49 1083.93 537.49 C 1087.72 537.49 1091.50 537.50 1095.30 537.50 C 1095.30 538.13 1095.30 539.37 1095.30 540.00 C 1090.45 540.00 1085.61 540.00 1080.77 540.00 C 1080.76 531.83 1080.76 523.67 1080.77 515.50 Z" />
<path fill="#000000" opacity="1.00" d=" M 1102.26 539.99 C 1102.28 531.82 1102.23 523.66 1102.29 515.50 C 1106.43 515.64 1110.74 514.97 1114.77 516.25 C 1119.03 517.74 1119.73 523.83 1116.97 526.99 C 1115.83 528.00 1114.44 528.65 1113.16 529.43 C 1115.25 532.92 1117.26 536.46 1119.33 539.97 C 1118.45 539.99 1116.69 540.02 1115.81 540.04 C 1113.78 536.53 1111.82 532.98 1109.80 529.47 C 1108.33 529.48 1106.87 529.49 1105.44 529.52 C 1105.43 533.01 1105.43 536.51 1105.43 540.01 C 1104.64 540.00 1103.05 539.99 1102.26 539.99 M 1105.42 518.00 C 1105.43 521.00 1105.43 524.01 1105.43 527.01 C 1108.01 526.89 1110.80 527.39 1113.25 526.28 C 1116.09 524.96 1116.37 519.97 1113.40 518.65 C 1110.86 517.66 1108.06 518.08 1105.42 518.00 Z" />
<path fill="#000000" opacity="1.00" d=" M 1126.14 515.63 C 1126.97 515.59 1128.61 515.50 1129.44 515.46 C 1129.43 523.64 1129.44 531.82 1129.43 540.01 C 1128.64 540.00 1127.05 539.99 1126.26 539.99 C 1126.21 531.86 1126.41 523.74 1126.14 515.63 Z" />
<path fill="#000000" opacity="1.00" d=" M 1165.26 539.99 C 1165.31 531.80 1165.17 523.61 1165.34 515.42 C 1169.47 515.68 1173.76 514.97 1177.78 516.25 C 1182.04 517.75 1182.73 523.85 1179.96 527.00 C 1178.82 528.01 1177.43 528.66 1176.16 529.43 C 1178.26 532.92 1180.26 536.46 1182.33 539.97 C 1181.45 539.99 1179.69 540.02 1178.81 540.04 C 1176.78 536.52 1174.81 532.97 1172.78 529.46 C 1171.32 529.47 1169.87 529.49 1168.44 529.52 C 1168.43 533.01 1168.43 536.51 1168.43 540.01 C 1167.64 540.00 1166.05 539.99 1165.26 539.99 M 1168.43 517.99 C 1168.43 520.99 1168.43 524.00 1168.42 527.01 C 1171.01 526.89 1173.81 527.39 1176.26 526.27 C 1179.37 524.83 1179.28 519.18 1175.72 518.39 C 1173.33 517.80 1170.85 518.02 1168.43 517.99 Z" />
<path fill="#000000" opacity="1.00" d=" M 1198.77 515.51 C 1203.33 515.59 1208.49 514.76 1212.45 517.62 C 1215.91 520.20 1216.77 524.87 1216.51 528.94 C 1216.33 532.62 1214.80 536.55 1211.46 538.44 C 1207.62 540.67 1202.98 539.88 1198.77 539.99 C 1198.76 531.83 1198.76 523.67 1198.77 515.51 M 1201.94 517.92 C 1201.93 524.47 1201.92 531.02 1201.94 537.57 C 1205.28 537.52 1209.41 537.68 1211.49 534.51 C 1213.92 530.64 1213.99 525.24 1211.77 521.26 C 1209.74 517.83 1205.40 517.96 1201.94 517.92 Z" />
<path fill="#000000" opacity="1.00" d=" M 1224.26 539.99 C 1224.30 531.81 1224.19 523.62 1224.33 515.44 C 1229.02 515.53 1233.73 515.49 1238.43 515.50 C 1238.43 516.13 1238.43 517.38 1238.43 518.00 C 1234.76 517.99 1231.09 518.00 1227.43 518.02 C 1227.42 520.67 1227.42 523.32 1227.42 525.98 C 1230.53 525.99 1233.65 526.00 1236.78 526.05 C 1236.75 526.67 1236.68 527.89 1236.65 528.51 C 1233.57 528.50 1230.50 528.50 1227.44 528.50 C 1227.43 531.50 1227.42 534.49 1227.44 537.49 C 1231.20 537.50 1234.97 537.50 1238.75 537.49 C 1238.78 538.10 1238.85 539.34 1238.88 539.95 C 1234.00 540.03 1229.13 540.00 1224.26 539.99 Z" />
<path fill="#000000" opacity="1.00" d=" M 1268.26 539.99 C 1268.38 531.85 1268.03 523.69 1268.42 515.56 C 1269.17 515.52 1270.68 515.44 1271.43 515.40 C 1271.43 523.60 1271.44 531.80 1271.43 540.01 C 1270.64 540.00 1269.05 539.99 1268.26 539.99 Z" />
<path fill="#000000" opacity="1.00" d=" M 1305.26 539.99 C 1305.31 531.76 1305.16 523.53 1305.35 515.30 C 1306.19 515.40 1307.88 515.61 1308.72 515.71 C 1312.40 522.60 1316.65 529.18 1320.21 536.14 C 1319.62 529.23 1319.82 522.31 1319.80 515.39 C 1320.50 515.44 1321.89 515.53 1322.59 515.57 C 1322.95 523.72 1322.61 531.89 1322.74 540.05 C 1321.61 539.98 1320.49 539.93 1319.39 539.88 C 1315.66 533.04 1311.59 526.39 1307.92 519.52 C 1308.36 526.34 1308.22 533.17 1308.23 540.00 C 1307.49 540.00 1306.00 539.99 1305.26 539.99 Z" />
</g>
</svg>
